<svg width="580" height="400" xmlns="http://www.w3.org/2000/svg">
 <!-- Created with Method Draw - http://github.com/duopixel/Method-Draw/ -->
 <g>
  <title>background</title>
  <rect fill="#fff" id="canvas_background" height="402" width="582" y="-1" x="-1"/>
  <g display="none" overflow="visible" y="0" x="0" height="100%" width="100%" id="canvasGrid">
   <rect fill="url(#gridpattern)" stroke-width="0" y="0" x="0" height="100%" width="100%"/>
  </g>
 </g>
 <g>
  <title>Layer 1</title>
  <path d="m171.5,247.516663c0,-1 0,-2 0,-5c0,-4 0,-7 0,-12c0,-4 0,-9 0,-14c0,-4 0.493454,-8.878555 1,-12c0.640732,-3.948349 0.359268,-7.051651 1,-11c0.506546,-3.121445 1.493454,-5.878555 2,-9c0.320358,-1.974182 0,-6 0,-8c0,-2 0,-4 0,-6c0,-2 0,-4 0,-7c0,-3 -0.152771,-7.041321 1,-11c0.88414,-3.036163 1.789856,-6.07843 3,-9c0.855713,-2.065857 1.337494,-5.310013 3,-8c0.7435,-1.203003 2.789856,-4.07843 4,-7c0.855713,-2.065857 1.385101,-3.372017 4,-7c3.307617,-4.589081 4.794876,-6.220215 8,-9c3.777267,-3.276009 7.742828,-7.344566 13,-11c4.787399,-3.328789 11.920334,-8.167961 16,-10c4.912567,-2.206062 12.112366,-4.54705 17,-6c5.161911,-1.534485 10.176971,-2.345184 15,-4c4.230072,-1.45137 8.946716,-3.498741 16,-4c2.992462,-0.212669 9,-1 13,-1c6,0 13.190521,-0.802742 19,1c15.809296,4.905769 18.232727,8.733246 24,14c5.221436,4.768295 8,9 11,15c3,6 4.997467,11.89344 6,26c0.283569,3.989944 1,12 1,17c0,5 0,10 0,15c0,7 0,10 0,14c0,5 0.497559,8.925797 1,14c0.492676,4.975662 0,10 0,14c0,4 0.633453,7.022476 1,10c0.503784,4.092209 1.496216,6.907791 2,11c0.366547,2.977524 0.493469,6.878555 1,10c0.48056,2.961258 1,5 1,8c0,2 1,4 1,7c0,2 0.486267,2.823746 1,5c0.459503,1.946503 0.839813,5.012909 1,6c0.506531,3.121429 0.540497,5.053497 1,7c0.513733,2.176239 1.458801,2.693451 2,4c0.38269,0.923889 -0.707092,2.292908 0,3c0.707092,0.707092 1,1 1,2c0,0 0.458801,0.693451 1,2c0.38269,0.923889 0,1 0,2l0,0l0,0" id="svg_9" stroke-width="1.5" stroke="#000" fill="none"/>
  <path d="m171.5,242.516663c0,1 0,2 0,3c0,1 0,2 0,3c0,1 1,2 1,3c0,1 0.458801,1.693436 1,3c0.38269,0.923874 -0.229752,2.026764 0,3c0.513748,2.176239 1,2 1,4c0,1 0,2 0,3c0,1 1,2 1,3c0,2 0.458801,2.693451 1,4c0.38269,0.923889 0,2 0,3c0,1 1,3 1,4c0,1 0,3 0,4c0,2 0.458801,2.693451 1,4c0.38269,0.923889 0,2 0,3c0,1 0,1 0,2c0,0 1,0 1,1c0,0 0,1 0,1c0,1 0,1 0,2c0,0 -0.707108,1.292908 0,2c0.707108,0.707092 1,1 1,1c0,1 0,1 0,1c0,0 1,0 1,0c1,0 4.137695,-1.892883 8,-7c5.188843,-6.861176 10.220535,-13.831268 14,-19c4.256378,-5.820923 6.385101,-9.372009 9,-13c1.653809,-2.294525 3,-4 5,-6c0,0 0.292892,-0.292892 1,-1c0.707108,-0.707108 1.458801,-0.306564 2,1c0.38269,0.923874 1,2 2,4c1,2 2.190277,3.881531 4,7c2.24469,3.867981 4,6 5,8c1,2 2,3 3,4c1,1 1.292892,2.292908 2,3c0.707108,0.707092 2,1 2,1c1,1 1.693436,1.458801 3,2c0.923874,0.38269 1.076126,0.38269 2,0c2.613129,-1.082397 2.664459,-2.458069 5,-6c2.964478,-4.495758 4,-8 6,-12c1,-2 2,-4 2,-5c0,0 1.458801,-0.693451 2,-2c0.38269,-0.923889 0.292908,-2.292908 1,-3c0.707092,-0.707108 2,0 3,0c0,0 1.173096,1.852722 2,3c1.307465,1.813995 2.493469,3.878571 3,7c0.320374,1.974182 1.144287,4.934143 2,7c1.210144,2.92157 1.692535,5.186005 3,7c0.826904,1.147278 1.292908,2.292908 2,3c0.707092,0.707092 1.933502,-1.017212 3,-5c1.883118,-7.032349 3.375397,-15.118103 5,-22c1.453094,-6.155365 2.486267,-9.823746 3,-12c0.459503,-1.946503 0,-2 0,-2c1,0 1.877655,0.06601 3,2c3.619446,6.236954 6.077637,10.558029 10,16c2.480713,3.441803 6.648865,9.19577 9,13c2.628662,4.253265 6.519287,7.558197 9,11c1.307465,1.813995 2,3 3,4c0,0 0,-7 0,-17c0,-8 -0.496216,-14.907791 -1,-19c-0.366547,-2.977524 0,-3 0,-3c2,4 6.709229,8.639923 10,16c2.581482,5.773712 5.550385,11.641174 8,16c2.638336,4.694611 4.346191,7.705475 6,10c1.307465,1.813995 2,3 3,4c1,1 2,1 2,1c1,0 2,0 3,-1c2,-2 3.418854,-2.418854 5,-4c1.581146,-1.581146 2.692535,-3.186005 4,-5c0.826904,-1.147278 0.770233,-3.026764 1,-4c0.513733,-2.176239 1,-4 1,-6c0,-1 0,-2 0,-2l0,0" id="svg_10" stroke-width="1.5" stroke="#000" fill="none"/>
  <path d="m228.5,120.516663c0,1 -0.458801,1.693436 -1,3c-0.765366,1.847755 0,4 0,6c0,2 -0.662506,10.310013 1,13c0.7435,1.203003 1.418854,1.418854 3,3c1.581146,1.581146 3,3 4,3c1,0 2,0 4,0c1,0 4.234634,-3.152237 5,-5c0.541199,-1.306564 2,-3 2,-4c0,-2 0,-4 0,-7c0,-2 -0.692551,-4.186005 -2,-6c-0.826904,-1.14727 -2.418854,-2.418861 -4,-4c-1.581146,-1.581139 -4.934143,-2.144295 -7,-3c-2.92157,-1.210152 -5,-2 -7,-2c-1,0 -3,0 -3,0c-1,0 -1,0 -1,0l0,0l0,1l0,0" id="svg_11" stroke-width="1.5" stroke="#000" fill="none"/>
  <path d="m292.5,123.516663c-1,0 -1,1 -1,2c0,1 0,1 0,2c0,1 0,1 0,2c0,1 1.443512,1.38063 3,7c0.266937,0.963715 1,1 1,2c0,0 2.907776,1.496231 7,2c1.985016,0.24437 2.852722,-0.173096 4,-1c1.813995,-1.307449 2.173096,-1.852737 3,-3c1.307465,-1.813995 1.234619,-4.152237 2,-6c0.541199,-1.306564 1,-3 1,-4c0,-1 0,-3 0,-3c0,-2 0.38269,-2.076118 0,-3c-0.541199,-1.306564 -0.693451,-1.458801 -2,-2c-0.923889,-0.382683 -1.693451,-0.458801 -3,-1c-0.923889,-0.382683 -2,0 -3,0c-1,0 -2,0 -4,0c-1,0 -2,0 -2,0c-1,0 -2,1 -2,1c-1,0 -1,0 -2,0c0,0 -1,1 -1,1c-1,0 -1,0 -1,1c0,0 0,0 -1,0c0,0 0,1 0,1c0,0 0,1 0,1l-1,0l0,0" id="svg_12" stroke-width="1.5" stroke="#000" fill="none"/>
  <path d="m173.5,184.516663c0,0 1,0 2,0c1,0 3,0 3,0c1,0 2,-1 3,-1c1,0 1,0 2,0c0,0 1,0 2,0c1,0 1,0 2,0l0,0l0,0l0,0" id="svg_14" stroke-width="1.5" stroke="#000" fill="none"/>
  <path d="m347.5,191.516663c-2,0 -3.934143,-0.144287 -6,-1c-2.92157,-1.210144 -5.934143,-3.144287 -8,-4c-2.92157,-1.210144 -5.309998,-1.337494 -8,-3c-2.406006,-1.487 -4.705475,-3.346191 -7,-5c-1.813995,-1.307449 -4.186005,-2.692551 -6,-4c-1.147278,-0.826904 -3,-2 -4,-3c-1,-1 -3,-3 -3,-3c-1,-1 -2,-2 -2,-2c-1,-1 -0.693451,-2.458801 -2,-3c-0.923889,-0.38269 -0.292908,-0.292892 -1,-1c-0.707092,-0.707108 -1,-1 -2,-1c0,0 -1,-1 -1,-1c-1,-1 -1,-1 -1,-1c0,0 -1,-1 -1,-1c0,0 0,0 0,0c0,0 0,0 -1,2c-1,2 -2.569519,5.132996 -4,9c-0.775787,2.097168 -3.224213,5.902832 -4,8c-1.430481,3.867004 -2.569519,6.132996 -4,10c-0.775787,2.097168 -2.486267,3.823746 -3,6c-0.229767,0.973251 -1.458801,2.693436 -2,4c-0.765381,1.847763 -0.839813,3.012909 -1,4c-0.506531,3.121445 -1,3 -1,4c0,0 0,1 0,2c0,0 0,0 0,0c1,-1 2,-2 4,-4c2,-2 4.418854,-4.418854 6,-6c1.581146,-1.581146 2.0979,-2.824432 4,-4c0.850647,-0.525726 2.458801,-0.693436 3,-2c0.38269,-0.923874 1,-1 1,-2c0,0 0,0 1,-1c0,0 0,0 0,0c1,-1 1,-1 1,-1c0,-1 1,-1 1,-1c0,-1 1,-1 1,-2c0,0 1,0 1,0c0,0 0.076111,-0.38269 1,0c1.306549,0.541199 0.693451,1.458801 2,2c0.923889,0.38269 1.823761,1.486252 4,2c0.973236,0.229752 2.076111,0.61731 3,1c1.306549,0.541199 2.693451,1.458801 4,2c0.923889,0.38269 2,1 3,1c1,0 1,1 2,1c1,0 0.693451,0.458801 2,1c0.923889,0.38269 1.693451,0.458801 3,1c0.923889,0.38269 2.076111,0.61731 3,1c1.306549,0.541199 3.076111,1.61731 4,2c1.306549,0.541199 2,1 3,2c0,0 0.693451,0.458801 2,1c0.923889,0.38269 2,1 2,1c1,0 2,1 2,1c1,0 1,1 2,1c0,0 1,0 1,0c0,0 0,1 1,1c0,0 1,0 1,0c1,0 1,1 2,1c0,0 0,0 1,0c0,0 0,0 1,1c0,0 0,0 0,0c0,0 1,0 1,0c0,1 1,1 1,1l0,0l1,0" id="svg_15" stroke-width="1.5" stroke="#000" fill="none"/>
  <path d="m345.5,190.516663c0,0 -0.306549,0.458801 1,1c0.923889,0.38269 1,0 2,1l1,0l0,0l0,0" id="svg_16" stroke-width="1.5" stroke="#000" fill="none"/>
  <path d="m177.5,185.516663c-1,-1 -2.458801,-1.693436 -3,-3c-0.38269,-0.923874 -1.076126,-2.61731 -2,-3c-1.306564,-0.541199 -1.292892,-2.292892 -2,-3c-0.707108,-0.707108 -1,-1 -2,-2c-1,-1 -1,-1 -2,-2c0,0 0.707108,-0.292892 0,-1c-0.707108,-0.707108 -1,0 -1,0c-1,-1 -2,-2 -2,-2c-1,0 -1,-1 -2,-1c0,0 -0.292892,-1.292892 -1,-2c-0.707108,-0.707108 -1,0 -2,-1c0,0 -1,-1 -1,-1c-1,-1 -0.292892,-1.292892 -1,-2c-0.707108,-0.707108 -1,0 -1,-1c0,0 -1,0 -1,-1c0,0 -0.292892,0.707108 -1,0c-0.707108,-0.707108 0,-1 0,-1c0,0 -1,0 -1,0c0,0 -1,0 -1,0c0,-1 -1,-1 -1,-1c-1,0 -1,-1 -2,-1c0,0 -1,-1 -1,-1c0,0 -1,0 -1,-1c0,0 -1,0 -1,0c0,-1 0,-1 0,-1c0,0 -1,0 -1,-1c0,0 0,0 -1,0c0,0 0,-1 0,-1c-1,0 -1,0 -1,0c0,0 -0.076126,-0.61731 -1,-1c-1.306564,-0.541199 -2,2 -3,3c-1,1 -1.823746,2.486252 -4,3c-0.973251,0.229752 -1.474274,1.149353 -2,2c-1.175568,1.902115 -2.693436,2.458801 -4,3c-0.923882,0.38269 -1,1 -2,2c-1,1 -1,1 -2,2c-1,1 -2,2 -2,2c-1,1 -2,2 -3,3c-1,1 -1.149345,1.474274 -2,2c-1.902115,1.175568 -1,2 -2,3c-1,1 -1.076118,1.61731 -2,2c-1.306564,0.541199 -1.617317,2.076126 -2,3c-0.541199,1.306564 -0.617317,2.076126 -1,3c-0.541199,1.306564 -2,1 -2,2c0,1 -1,2 -1,2c-1,1 -1,1 -2,2c0,0 0,0 0,0c0,1 0,1 0,1c0,0 0,1 0,1c0,0 1,0 2,-1c1,-1 2,-1 3,-2c1,-1 1.693436,-2.458801 3,-3c0.923882,-0.38269 1.474266,-1.149353 2,-2c1.175568,-1.902115 2,-2 3,-3c1,-1 1,-1 2,-2c0,0 1,0 1,-1c0,0 0.292892,-0.292892 1,-1c0.707108,-0.707108 1.076118,0.38269 2,0c1.306564,-0.541199 1,-1 2,-1c0,0 1,-1 2,-1c1,0 2,-1 2,-1c1,0 2,0 2,0c1,0 1,-1 2,-1c0,0 1,0 1,0c0,0 0,0 1,0c0,0 1,-1 1,-1c1,0 0.823746,0.486252 3,1c0.973251,0.229752 1.796997,1.2565 3,2c2.689987,1.662506 5,1 7,2c2,1 4.06601,1.877655 6,3c3.118484,1.809723 5.186005,2.692551 7,4c1.147263,0.826904 2.852737,2.173096 4,3c1.813995,1.307449 4.186005,1.692551 6,3c2.29454,1.653809 4,3 6,4c2,1 3,1 5,2c2,1 3.152237,1.234634 5,2c1.306564,0.541199 2,1 3,2c1,1 2,1 2,1c1,0 1,0 1,1l1,0" id="svg_17" fill-opacity="null" stroke-opacity="null" stroke-width="1.5" stroke="#000" fill="none"/>
  <path d="m174.5,180.516663c1,0 2,0 4,1c2,1 3.418854,2.418854 5,4c1.581146,1.581146 4,2 5,3c1,1 3,1 4,2c1,1 2.824432,0.097885 4,2c0.525726,0.850647 1,1 2,2c0,0 0,0 1,0l0,0" id="svg_18" fill-opacity="null" stroke-opacity="null" stroke-width="1.5" stroke="#000" fill="none"/>
  <path d="m216.5,206.516663c0,0 0,-2 0,-4c0,-1 -0.458801,-2.693436 -1,-4c-0.765366,-1.847763 0.770248,-3.026749 1,-4c0.513748,-2.176254 0.692551,-3.186005 2,-5c0.826904,-1.147263 1.458801,-1.693436 2,-3c0.38269,-0.923874 -0.707108,-1.292892 0,-2c0.707108,-0.707108 0.292892,0.292892 1,1c0.707108,0.707108 1.173096,1.852737 2,3c1.307449,1.813995 1.789856,4.07843 3,7c0.855713,2.065857 2,3 2,5c0,1 1,2 1,2c1,1 1.458801,1.693436 2,3c0.38269,0.923874 1.292892,1.292892 2,2c0.707108,0.707108 0,1 1,1c0,0 -0.389359,-0.159271 1,-3c1.584106,-3.238922 2.49295,-6.234009 5,-11c1.678558,-3.190994 2.540497,-6.053497 3,-8c0.513748,-2.176254 1.2565,-3.796997 2,-5c1.662506,-2.689987 1,-3 1,-3c0,1 1,3 1,4c0,2 1,4 1,5c0,2 0.540497,4.053497 1,6c0.513748,2.176254 1.234634,4.152237 2,6c0.541199,1.306564 0.292892,2.292892 1,3c0.707108,0.707108 1,1 1,1c1,1 1,1 1,1c0,0 0.292892,0.707108 1,0c0.707092,-0.707108 1.415894,-3.761078 3,-7c1.389343,-2.840729 2,-6 3,-8c1,-2 2.458801,-2.693436 3,-4c0.38269,-0.923874 0.458801,-1.693436 1,-3c0.38269,-0.923874 0,-1 0,-1c0,0 0.234619,4.152237 1,6c0.541199,1.306564 0.61731,1.076126 1,2c0.541199,1.306564 1,1 1,2c0,1 1,1 1,2c0,0 1,1 1,1l0,1l0,0l0,0" id="svg_19" fill-opacity="null" stroke-opacity="null" stroke-width="1.5" stroke="#000" fill="none"/>
  <polyline stroke-linecap="round" id="svg_21" points="-149.5,340.51666259765625 -149.5,340.51666259765625 " fill-opacity="null" stroke-opacity="null" stroke-width="1.5" stroke="#000" fill="none"/>
 </g>
</svg>