<svg width="172" height="171" xmlns="http://www.w3.org/2000/svg">
 <!-- Created with Method Draw - http://github.com/duopixel/Method-Draw/ -->
 <g>
  <title>background</title>
  <rect fill="#fff" id="canvas_background" height="173" width="174" y="-1" x="-1"/>
  <g display="none" overflow="visible" y="0" x="0" height="100%" width="100%" id="canvasGrid">
   <rect fill="url(#gridpattern)" stroke-width="0" y="0" x="0" height="100%" width="100%"/>
  </g>
 </g>
 <g>
  <title>Layer 1</title>
  <path d="m18.75,134.75c0,0 0,-6 0,-10c0,-6 0,-8 0,-12c0,-1 0,-2 0,-3c0,-2 0,-3 0,-4c0,-1 0,-1 0,-2c0,0 -0.098541,-0.004868 0,-1c0.502441,-5.074203 2.567307,-7.809647 5,-16c2.625031,-8.837936 4.399017,-14.898102 6,-22c1.337677,-5.933853 2.486252,-8.823746 3,-11c0.229752,-0.973251 0.486252,-1.823746 1,-4c0.229752,-0.973251 0.458801,-1.693436 1,-3c0.38269,-0.923874 0,-2 0,-2c0,-1 0.770248,-2.026749 1,-3c0.513748,-2.176254 1.292892,-2.292892 2,-3c0.707108,-0.707108 0,-1 0,-1c0,-1 0,-1 1,-2c1,-1 5.359344,-5.480698 7,-7c4.278305,-3.961838 4.076126,-6.617317 5,-7c1.306564,-0.541199 1,-1 1,-1c0,0 0,0 0,0c0,-1 3,-4 6,-7c4,-4 5,-5 6,-7c0,0 1,-1 1,-1c0,0 0.042908,0.289787 1,0c3.450851,-1.04483 4.07843,-1.789848 7,-3c2.065857,-0.855705 3,-2 4,-2c0,0 1,0 1,0c2,0 5,0 7,0c0,0 1,0 2,0c2,0 2,0 5,0c1,0 2,1 3,1c1,0 1.186005,-0.307449 3,1c1.147278,0.826904 2.852722,1.173096 4,2c1.813995,1.307449 3.418854,0.418861 5,2c1.581146,1.581139 3.0979,3.824432 5,5c0.850647,0.525734 2.076111,1.617317 3,2c1.306549,0.541199 1.824432,1.097885 3,3c0.525726,0.850655 1,2 2,3c1,1 1,2 2,3c1,1 1,2 2,3c1,1 1.770233,2.026749 2,3c0.513733,2.176254 2.458801,2.693436 3,4c0.38269,0.923874 1.458801,2.693436 2,4c0.765381,1.847763 1,3 2,5c1,2 1.234619,3.152237 2,5c0.541199,1.306564 1,2 2,4c1,2 0.692535,3.186005 2,5c0.826904,1.147263 1.458801,1.693436 2,3c0.765381,1.847763 0.234619,3.152237 1,5c0.541199,1.306564 2.458801,2.693436 3,4c0.765381,1.847763 1.486267,2.823746 2,5c0.229767,0.973251 0,2 1,4c0,0 0.458801,0.693436 1,2c0.38269,0.923874 0.486267,1.823746 1,4c0.229767,0.973251 1.224213,2.902832 2,5c1.430481,3.867004 1.458801,5.693436 2,7c0.765381,1.847763 1.486267,4.823746 2,7c0.459503,1.946503 1,4 1,5c0,2 0.486267,3.823746 1,6c0.229767,0.973251 0.486267,2.823746 1,5c0.229767,0.973251 0.486267,1.823746 1,4c0.68927,2.919754 0.234619,5.152237 1,7c0.541199,1.306564 1,2 1,3c0,1 0.458801,1.693436 1,3c0.765381,1.847763 0,4 0,5c0,1 1,3 1,4c0,0 -0.229767,2.026749 0,3c0.513733,2.176254 1,3 1,3c0,1 0,1 0,1c0,0 1,6 1,8c0,1 0,2 1,2l0,0l0,0" id="svg_1" stroke-width="1.5" stroke="#000" fill="none"/>
  <path d="m19.75,132.75c0,1 0,2 0,4c0,1 0,1 0,2c0,0 0,0 0,1c0,1 0,2 0,4c0,0 0,2 0,2c0,1 0,2 0,3c0,0 0,1 0,1c0,1 0,2 0,3c0,0 0,0 0,1c0,1 0,1 0,1c0,1 0,2 0,2c0,0 0,1 0,1c0,0 0,1 0,1c1,1 1,1 1,2c0,0 0.292892,0.707092 1,0c0.707108,-0.707092 0.61731,-1.076111 1,-2c0.541199,-1.306549 0.623901,-2.237518 2,-4c5.673813,-7.266891 9,-8 12,-12c0,0 0,-1 0,-1c0,1 0,1 0,2c0,1 0,2 0,3c0,1 0,1 0,3c0,0 0,1 0,2c0,1 0,2 0,3c0,0 -0.38269,1.076126 0,2c0.541199,1.306549 2,3 3,4c1,1 1,2 2,2c0,0 0,0 0,0c1,-1 1,-3 1,-4c0,-1 0.310745,-2.080261 1,-5c0.513748,-2.176254 2,-4 3,-6c1,-2 1,-3 2,-3c0,0 0,0 0,-1c0,0 0,0 0,0c0,-1 0,-1 0,0c0,2 0.458801,2.693436 1,4c0.765366,1.847763 0.714127,3.21167 3,6c0.896591,1.093674 1.61731,2.076126 2,3c0.541199,1.306549 2,2 3,3c0,0 1,2 2,2c0,0 0,0 0,0c1,-2 0.374405,-6.816422 5,-14c0.76564,-1.189041 1.234634,-3.152237 2,-5c0.541199,-1.306564 0.789856,-0.92157 2,2c0.855713,2.065857 -0.07193,2.611038 2,5c1.465073,1.68924 1.692551,2.186005 3,4c0.826904,1.147263 1.693436,2.458801 3,3c0.923874,0.38269 1,1 2,1c0,0 -0.38269,-1.076111 0,-2c0.541199,-1.306564 1.144287,-2.934143 2,-5c1.210144,-2.92157 2.486252,-4.823746 3,-7c0.229752,-0.973251 0,-1 0,-1c0,0 0,0 0,1c0,2 1,4 3,8c2,4 2,5 3,6c0,0 1,1 1,1c0,0 0.458801,0.306549 1,-1c0.765381,-1.847763 0,-3 1,-5c1,-2 1,-4 3,-8c0,0 1,-1 1,-1c0,0 0,2 0,2c0,2 0.842834,4.110962 3,7c4.672821,6.258179 5.61731,7.076111 6,8c1.082397,2.613129 3,3 3,3c1,1 1,1 1,1c0,-1 -0.38269,-2.076111 0,-3c0.541199,-1.306549 0.847229,-3.041321 2,-7c0.884125,-3.036163 1,-5 1,-5c0,-1 0,-1 0,-1c0,0 0,-1 0,0c0,1 0.486267,2.823746 1,5c0.229767,0.973251 3,5 5,8c2,3 3.0979,6.824432 5,8c0.850647,0.525726 1,1 1,-1c0,-1 0,-1 0,-3c0,-3 0.507324,-5.024323 1,-10c0.502441,-5.074203 1.292908,-5.292892 2,-6c0.707092,-0.707108 0,-1 0,-1c0,0 -0.38269,0.076126 0,1c0.541199,1.306564 1,3 3,5c2,2 3.458801,2.693451 4,4c0.38269,0.923889 1.173096,1.852722 2,3c1.307465,1.813995 3.458801,2.693451 4,4c0.38269,0.923889 1,1 1,0c0,-2 0,-3 0,-4c0,-3 0.496216,-4.907776 1,-9c0.366547,-2.977524 0,-5 1,-6c0,0 0,0 0,0c0,1 -0.38269,2.076126 0,3c0.541199,1.306564 1.692535,3.186005 3,5c1.653809,2.294525 3.692535,4.186005 5,6c0.826904,1.147278 1.076111,1.61731 2,2c1.306549,0.541199 1,2 1,2c0,0 -0.38269,-0.076111 0,-1c0.541199,-1.306549 1,-2 1,-3c0,0 0,-1 0,-2c0,-3 0,-6 0,-7c0,-1 0,-2 0,-2c1,0 1,0 1,1c0,1 -0.285889,2.21167 2,5c0.896606,1.093658 3,4 7,8c2,2 3,3 4,4c1,1 1,2 1,2l0,0l0,0l0,-1" id="svg_2" stroke-width="1.5" stroke="#000" fill="none"/>
  <path d="m60.75,54.75c-1,0 -1,0 -2,0c0,0 0,0 0,0c0,1 0,1 0,2c0,0 0.38269,1.076126 0,2c-0.541199,1.306564 -1.458801,1.693436 -2,3c-0.38269,0.923874 0,2 0,2c-1,1 -1,1 -1,2c0,1 0,1 0,2c0,1 0.292892,1.292892 1,2c0.707108,0.707108 1,0 2,0c0,0 1,0 1,0c0,0 2,0 3,0c0,0 1.292892,-0.292892 2,-1c0.707108,-0.707108 2.292892,-0.292892 3,-1c0.707108,-0.707108 0.292892,-0.292892 1,-1c0.707108,-0.707108 0,-1 0,-2c0,-1 -0.38269,-2.076126 0,-3c0.541199,-1.306564 1,-3 1,-3c0,-1 0,-2 0,-2c0,-1 0,-2 0,-2c-1,-1 -1,-1 -2,-2c0,0 -1,0 -2,0c-2,0 -2,0 -3,0c0,0 -1,0 -1,0c0,0 0,0 -1,1c0,0 0,1 -1,1l0,1l0,0" id="svg_3" stroke-width="1.5" stroke="#000" fill="none"/>
  <path d="m112.75,57.75c0,0 -1,0 -1,0c0,0 -1,0 -1,0c-1,0 -1,0 -2,1c0,0 -0.61731,1.076126 -1,2c-0.541199,1.306564 -1.458801,1.693436 -2,3c-0.38269,0.923874 0,2 0,3c0,1 0,1 0,2c0,0 0,0 0,0c0,1 0,1 1,2c0,0 1,1 1,1c1,0 2,0 3,0c1,0 2,0 3,0c1,0 1,0 2,0c1,0 1,0 2,0c0,0 0,0 1,0c0,0 1,-1 2,-2c1,-1 2.458801,-2.693436 3,-4c0.38269,-0.923874 1,-1 1,-1c0,-1 0,-1 0,-2c0,-1 0,-1 0,-2c0,-1 0,-1 0,-1c0,-1 -1,-2 -1,-2c-1,0 -1.076111,-0.61731 -2,-1c-1.306549,-0.541199 -2,-1 -3,-1c-1,0 -1,0 -1,0c-1,0 -1,0 -3,0c-1,0 -2,0 -3,1l-1,0l-2,0l0,1" id="svg_4" stroke-width="1.5" stroke="#000" fill="none"/>
  <path d="m56.75,120.75c0,1 1.173096,0.852737 2,2c1.307449,1.813995 2,2 3,3c0,0 1,0 1,1c0,0 0,0 1,0c0,0 0,0 0,0c1,-1 1,-1 1,-1c0,-1 0,-1 0,-2c0,0 0.292892,0.707108 1,0c0.707108,-0.707108 0,-1 0,-1c0,-1 1,-1 2,-2c0,0 1,0 1,0c0,0 0,0 0,1c0,0 1.076126,0.61731 2,1c1.306564,0.541199 1.292892,2.292892 2,3c0.707108,0.707108 2,1 2,1c0,0 0,0 0,0c1,0 1,1 1,1c0,0 0.292892,0.707108 1,0c0.707108,-0.707108 0,-1 0,-1c0,-1 -0.229752,-1.026749 0,-2c0.513748,-2.176254 2,-3 2,-3c0,-1 1,-1 1,-2c0,0 0,0 0,0c0,1 -0.307449,1.186005 1,3c0.826904,1.147263 2.852737,3.173096 4,4c1.813995,1.307449 2,2 3,2c0,0 0,1 1,1c0,0 -0.707092,-0.292892 0,-1c0.707092,-0.707108 1.692535,-2.186005 3,-4c1.653809,-2.29454 4,-4 5,-5c1,-1 1.292908,-2.707108 2,-2c0.707092,0.707108 0,1 0,1c0,1 0.61731,2.076126 1,3c0.541199,1.306564 2,2 3,3c0,0 1,1 1,1c0,0 1,0 1,0c0,-1 -0.307465,-1.186005 1,-3c1.653809,-2.29454 2.0979,-3.824432 4,-5c0.850647,-0.525726 1,-1 1,0c0,1 0.346191,0.70546 2,3c1.307465,1.813995 2.458801,2.693436 3,4c0.38269,0.923874 1.292908,1.292892 2,2c0.707092,0.707108 0.292908,0.292892 1,1c0.707092,0.707108 0,1 1,1c0,0 0,0 1,0c0,0 1,0 2,-1c2,-2 4,-3 5,-4l0,0l1,0" id="svg_5" stroke-width="1.5" stroke="#000" fill="none"/>
  <path d="m52.75,92.75c0,-1 -2.800476,-0.638702 -13,-16c-1.236877,-1.862839 -1,-2 -2,-3c-1,-1 -2,-2 -3,-4c0,0 -1.458801,-0.693436 -2,-2c-0.38269,-0.923874 -1,-1 -1,-2c0,0 0,0 0,0c0,0 -1,0 -1,-1c0,0 -1,0 -1,0c0,0 0,-1 0,-1c-1,0 0,-1 -1,-1c-1,0 0,1 0,1c0,1 0,1 0,1c0,1 -0.61731,1.076126 -1,2c-0.541199,1.306564 -2.852737,2.173096 -4,3c-1.813995,1.307449 -3,2 -4,3c-1,1 -2,2 -2,2c-1,1 -2,2 -3,3c0,0 -1.292892,0.292892 -2,1c-0.707108,0.707108 -1,2 -2,3c0,0 -1.458801,0.693436 -2,2c-0.38269,0.923874 -1,2 -1,2c-1,1 -2,2 -3,3c0,0 -0.292892,1.292892 -1,2c-0.707108,0.707108 -1,1 -1,1c-1,1 -1,1 -2,2c0,0 0,1 0,1c0,0 1,-1 1,-1c0,-1 1,-1 1,-1c1,0 1.292892,-0.292892 2,-1c0.707108,-0.707108 1.026749,-1.770248 2,-2c2.176254,-0.513748 3,-2 4,-3c1,-1 2,-2 3,-2c0,0 1,0 1,-1c0,0 1,0 1,0c0,0 1,-1 1,-1c1,0 0.292892,-0.292892 1,-1c0.707108,-0.707108 1,0 2,-1c0,0 1,0 1,0c0,-1 1,-1 1,-1c1,-1 1,-1 2,-1c0,0 0,0 1,0c0,0 1,0 1,0c1,1 2.076126,0.61731 3,1c1.306564,0.541199 1.852737,2.173096 3,3c1.813995,1.307449 2.292892,2.292892 3,3c0.707108,0.707108 1.292892,0.292892 2,1c0.707108,0.707108 1,2 1,2c1,0 1,1 2,1c0,0 1,1 1,1c1,1 1.076126,0.61731 2,1c1.306564,0.541199 1.292892,1.292892 2,2c0.707108,0.707108 1,0 2,1c0,0 0,0 0,0c1,0 1,0 2,1c0,0 0,0 1,0c0,0 0,1 1,1c0,0 0,0 0,0c0,0 1,0 1,0c0,0 0,0 0,0c0,-1 0,-2 0,-3c0,0 0,-1 0,-2l-1,-1" id="svg_6" stroke-width="1.5" stroke="#000" fill="none"/>
  <path d="m122.75,94.75c-6,-2 -6.693451,-3.458801 -8,-4c-0.923889,-0.38269 -2.076111,-0.61731 -3,-1c-1.306549,-0.541199 -2,-2 -3,-3c-1,-1 -3.076111,-1.61731 -4,-2c-1.306549,-0.541199 -2.076111,-1.61731 -3,-2c-1.306549,-0.541199 -2.076111,-1.61731 -3,-2c-1.306549,-0.541199 -2.076111,-1.61731 -3,-2c-1.306549,-0.541199 -1.693451,-1.458801 -3,-2c-0.923889,-0.38269 -1.292908,0.707108 -2,0c-0.707092,-0.707108 0,-1 0,-1c0,0 0.306549,1.458801 -1,2c-0.923889,0.38269 -1.076111,0.61731 -2,1c-1.306564,0.541199 -1.386871,1.917603 -4,3c-0.923874,0.38269 -2.458801,0.693436 -3,2c-0.38269,0.923874 -1,1 -2,2c-1,1 -1,1 -2,2c-1,1 -2,2 -2,2c-1,1 -1.292892,1.292892 -2,2c-0.707108,0.707108 0,1 0,1c0,0 0,1 -1,1c0,0 0,0 0,0c0,0 -1,1 -1,1c0,0 0,0 0,0c-1,0 -1,1 -1,1c0,0 0,0 1,0c0,0 1,-1 1,-1c1,0 1,0 1,0c1,0 1,-1 1,-1c1,0 1,0 1,0c1,0 1,-1 1,-1c1,0 1,0 1,0c1,-1 1.693436,-1.458801 3,-2c0.923874,-0.38269 3.693436,-1.458801 5,-2c0.923874,-0.38269 1,0 2,0c0,0 1,0 1,0c0,0 0,0 0,0c1,1 2,1 3,2c1,1 2.693451,1.458801 4,2c1.847748,0.765366 3.152252,0.234634 5,1c1.306549,0.541199 1.292908,1.292892 2,2c0.707092,0.707108 2,0 3,0c0,0 0.292908,0.292892 1,1c0.707092,0.707108 1,0 2,0c0,0 1.076111,-0.38269 2,0c1.306549,0.541199 2,1 3,1c0,0 1.076111,-0.38269 2,0c1.306549,0.541199 2,1 4,1c1,0 2,1 3,1c0,0 1,0 1,0c0,0 1,0 1,0c0,0 1,0 1,0c0,1 0,1 1,1l0,0l0,-1" id="svg_7" stroke-width="1.5" stroke="#000" fill="none"/>
  <path d="m120.75,94.75c1,0 2,1 2,1c1,1 1,1 1,1c1,0 1,1 1,1c1,0 1,0 2,1c0,0 1,0 1,0c0,1 1,1 1,1c0,0 0.292908,0.292892 1,1c0.707092,0.707108 1,0 1,0c1,0 2,0 2,0c0,0 0,1 0,1c1,0 1,0 1,0c1,0 3,0 4,0c1,0 3,0 3,0l1,0" id="svg_8" stroke-width="1.5" stroke="#000" fill="none"/>
 </g>
</svg>