<svg width="145" height="136" xmlns="http://www.w3.org/2000/svg">
 <!-- Created with Method Draw - http://github.com/duopixel/Method-Draw/ -->
 <g>
  <title>background</title>
  <rect fill="#fff" id="canvas_background" height="138" width="147" y="-1" x="-1"/>
  <g display="none" overflow="visible" y="0" x="0" height="100%" width="100%" id="canvasGrid">
   <rect fill="url(#gridpattern)" stroke-width="0" y="0" x="0" height="100%" width="100%"/>
  </g>
 </g>
 <g>
  <title>Layer 1</title>
  <path d="m73.75,3.319534c-1,0 -1.878571,-0.493469 -5,-1c-0.987091,-0.160187 -6.878571,-0.493469 -10,-1c-7.896698,-1.281464 -10,0 -11,0c-2,0 -3,0 -5,0c-1,0 -2,0 -4,0c-1,0 -2.026749,0.770248 -3,1c-2.176254,0.513733 -2.292892,0.292892 -3,1c-0.707108,0.707108 0,1 -1,2c0,0 -1,1 -2,2c-1,1 -3.103409,1.906326 -4,3c-2.285873,2.78833 -3,4 -4,5c-2,2 -3,4 -4,5c-1,1 -2,3 -3,4c-1,1 -2.458801,1.693436 -3,3c-0.765366,1.847748 -0.337494,2.309998 -2,5c-0.7435,1.203003 -1.173096,1.852737 -2,3c-1.307449,1.813995 -1.458801,2.693436 -2,4c-0.38269,0.923874 -0.61731,2.076126 -1,3c-0.541199,1.306564 -1.458801,2.693436 -2,4c-0.38269,0.923874 -0.458801,1.693436 -1,3c-0.38269,0.923874 0,2 0,3c0,1 -1,3 -1,3c0,2 0,3 0,5c0,2 0,4 0,6c0,2 0,4 0,7c0,12 0.486252,13.823746 1,16c0.459503,1.946503 0.144287,4.934143 1,7c1.210144,2.92157 0.789856,5.07843 2,8c0.855713,2.065857 1.486252,4.823746 2,7c0.229752,0.973251 1,3 2,4c1,1 2.149353,2.474274 3,3c1.902115,1.175568 2.852737,3.173096 4,4c1.813995,1.307449 3,2 5,3c2,1 3,2 5,3c2,1 4.152237,1.234619 6,2c1.306564,0.541199 4.012909,1.839813 5,2c3.121445,0.506531 3.878555,1.493469 7,2c1.974182,0.320374 4,0 6,0c2,0 4,1 6,1c2,0 4,0 6,0c3,0 4,0 8,0c2,0 4,0 6,0c2,0 2.823761,-0.486267 5,-1c1.946503,-0.459503 4.053497,-0.540497 6,-1c2.176239,-0.513733 4.295013,-1.151215 14,-5c2.078583,-0.82431 3.053497,-1.540497 5,-2c2.176239,-0.513733 3.186005,-0.692566 5,-2c1.147278,-0.826904 2.693451,-1.458801 4,-2c1.847748,-0.765366 2.823761,-1.486252 5,-2c0.973236,-0.229752 3.026764,-0.770248 4,-1c2.176239,-0.513748 3.823761,-2.486252 6,-3c0.973236,-0.229752 1.852722,-1.173096 3,-2c1.813995,-1.307449 2.076111,-1.61731 3,-2c1.306549,-0.541199 1,-2 2,-3c1,-1 2.486267,-1.823746 3,-4c0.229767,-0.973251 1,-3 1,-3c1,-1 1,-2 1,-3c0,0 1,-1 1,-2c0,0 0,-1 0,-1c0,-1 0,-2 0,-3c0,-1 0,-3 0,-5c0,-1 0,-2 0,-3c0,-2 -1,-3 -1,-4c0,-1 0,-2 0,-3c0,-1 -1.493469,-0.878555 -2,-4c-0.160187,-0.987091 0,-1 0,-1c0,-1 -1,-2 -1,-2c-1,-1 0.414215,-1.585785 -1,-3c-0.707092,-0.707108 -1,-2 -2,-3c0,0 -0.234619,-1.152237 -1,-3c-0.541199,-1.306564 -1,-1 -1,-2c0,0 -1,-1 -1,-1c0,0 -0.292908,-0.292892 -1,-1c-0.707092,-0.707108 0.38269,-1.076126 0,-2c-0.541199,-1.306564 -1,-2 -1,-2c-1,-1 -1,-1 -1,-2c0,-1 -1,-1 -1,-2c0,0 -0.458801,-0.693436 -1,-2c-0.38269,-0.923874 0,-1 -1,-2c0,0 -0.458801,-0.693436 -1,-2c-0.38269,-0.923874 -0.458801,-0.693436 -1,-2c-0.38269,-0.923874 -1,-2 -1,-3c0,-1 -1,-1 -1,-2c0,-1 -1,-2 -1,-2c-1,-1 -0.292908,-1.292892 -1,-2c-0.707092,-0.707108 -1,-1 -2,-2c0,0 -0.61731,-1.076111 -1,-2c-1.082397,-2.613129 -2.292908,-3.292892 -3,-4c-0.707092,-0.707108 -2.458801,-0.693436 -3,-2c-0.38269,-0.923889 -1.458801,-0.693436 -2,-2c-0.38269,-0.923889 -0.693451,-2.458801 -2,-3c-0.923889,-0.38269 -1.076111,-0.61731 -2,-1c-1.306549,-0.541199 -1.076111,-1.61731 -2,-2c-1.306549,-0.541199 -1.61731,-1.076111 -2,-2c-0.541199,-1.306564 -2,-1 -3,-2c0,0 -1,-1 -1,-1c-1,0 -1,-1 -2,-1c0,0 0,0 0,0c-1,0 -1,-1 -2,-1c0,0 -1,0 -2,-1c0,0 -7.693451,-1.458801 -9,-2c-0.923889,-0.38269 -2,0 -3,0c0,0 -1,0 -1,0c-1,-1 -1,-1 -2,-1c0,0 -1,0 -1,0c0,0 -1,0 -1,0c0,0 -1,0 -1,0c-1,0 -0.292908,-0.292892 -1,-1c-0.707092,-0.707108 -1,0 -1,0c0,0 -1,0 -1,0c0,0 -1,0 -1,0l0,0l0,0" id="svg_1" stroke-width="1.5" stroke="#000" fill="none"/>
  <path d="m46.75,54.319534c0,0 0,0 0,0c1,0 1,0 1,0c0,1 0,1 0,1c0,0 0,1 0,1c0,0 -1,0 -1,0c0,0 0,0 0,0c0,0 0,-1 0,-1c0,0 0,0 0,0c0,0 1,0 1,0c0,0 0,1 0,1c0,0 0,0 0,0c0,0 0,0 0,-1c0,0 0,0 0,0c0,0 1,0 1,0c0,0 0,0 0,1c0,0 0,0 0,0c0,0 0,-1 0,-1c0,0 0,0 0,0c0,0 1,0 1,0c0,0 0,0 0,0c0,1 0,1 -1,1c0,0 0,0 0,0c0,0 0,-1 0,-1c0,0 0,0 0,0c0,0 0,0 1,0c0,0 0,0 0,0c0,1 0,1 -1,1c0,0 0,0 0,0c0,-1 0,-1 0,-2c0,0 0,0 0,0c0,0 0,1 0,1c0,0 0,0 0,0c-1,0 -1,0 -1,0c0,0 0,0 0,0c0,0 0,0 0,1c0,0 0,0 0,0c0,0 0,0 0,0c0,-1 0,-1 1,-1c0,0 0,0 0,1c0,0 0,-2 0,-2c0,0 0,0 0,0c1,0 1,1 1,1c0,0 0,0 0,1c0,0 0,0 0,0c0,1 -1,1 -1,1c0,-1 0,-1 0,-1c0,-1 0,-1 0,-1c0,0 0,0 1,0c0,0 0,0 0,0c0,1 0,1 0,1c0,0 -1,0 -1,0l0,0l0,0l0,0" id="svg_2" stroke-width="1.5" stroke="#000" fill="none"/>
  <path d="m95.75,58.319534c0,0 0,0 1,0c0,0 0,0 0,0c0,1 0,1 0,1c0,0 0,0 0,0c-1,0 -1,0 -2,0c0,0 0,0 0,0c0,0 0,-1 0,-1c0,0 0,-1 0,-1c0,0 0,0 0,0c1,0 1,0 1,0c0,0 0,0 1,0c0,0 0,0 0,0c0,0 0,1 0,1c0,0 -1,0 -1,0c0,0 0,0 0,0c0,-1 0,-1 -1,-1c0,0 0,-1 0,-1c0,0 1,0 1,0c0,0 1,0 1,0c0,0 0,1 0,1c0,1 0,1 -1,1c0,0 -0.292908,0.707108 -1,0c-0.707092,-0.707108 0,-1 0,-1c0,0 0,-1 0,-1c0,0 0,0 1,0c0,0 0,0 1,0c0,0 0,0 0,0c0,0 1,0 1,1c0,0 0,0 0,0c0,1 0,1 -1,1c0,0 0,0 0,0c0,-1 -1,-1 -1,-1c0,-1 0,-1 1,-1c0,0 0,0 0,0c1,0 1,0 1,1c0,0 -1,0 -1,0c0,0 0,0 -1,0c0,0 1,0 1,0c0,0 0,0 0,0c0,0 0,0 0,1c0,0 0,0 0,0l0,0l0,0l0,0" id="svg_3" stroke-width="1.5" stroke="#000" fill="none"/>
  <path d="m47.75,98.319534c1,1 1.458801,0.693436 2,2c0.38269,0.923874 1.292892,1.292892 2,2c0.707108,0.707108 1.292892,1.292892 2,2c0.707108,0.707108 1,1 2,2c0,0 0.292892,0.292892 1,1c0.707092,0.707108 1,0 2,1c0,0 1,1 2,1c1,0 1,0 2,1c0,0 1,0 1,0c1,0 1,0 2,0c0,0 1,0 1,0c1,0 1.292908,-0.707108 2,0c0.707092,0.707108 1,1 1,1c1,0 1,0 2,0c1,0 1,0 2,0c0,0 1,0 1,0c1,0 1,0 2,0c0,0 0,0 0,0c1,0 1,0 1,0c1,0 1,0 2,0c0,0 0,0 1,0c1,0 1,0 2,0c0,0 0,0 0,0c1,0 1,0 1,0c0,0 1,0 1,0c0,0 1,-1 1,-1c0,0 1,0 1,0c1,-1 2.076111,-0.61731 3,-1c1.306549,-0.541199 1,-1 2,-1c1,0 1,-1 2,-1c0,0 0,0 1,-1c0,0 0,0 0,0c1,-1 1,-1 1,-1c0,-1 0.292908,-1.292892 1,-2c0.707092,-0.707108 0.693451,-1.458801 2,-2c0.923889,-0.38269 1.076111,-1.61731 2,-2c1.306549,-0.541199 2.292908,-2.292892 3,-3c0.707092,-0.707108 -0.707092,-1.292892 0,-2c0.707092,-0.707108 1,0 1,0c0,-1 0,-1 0,-1l0,0l0,-1" id="svg_4" stroke-width="1.5" stroke="#000" fill="none"/>
  <path d="m71.75,76.319534c0,0 0,1 0,1c-1,0 -1,1 -1,1c0,0 0,0 0,1c0,0 0,0 0,0c0,1 0,1 0,1c0,1 0,1 0,1c-1,1 -1,1 -1,1c0,0 0,0 0,1c0,0 0,0 0,0c0,1 0,1 0,1c0,0 1,0 1,0l0,0l0,0l1,0" id="svg_5" stroke-width="1.5" stroke="#000" fill="none"/>
 </g>
</svg>