<svg width="159" height="222" xmlns="http://www.w3.org/2000/svg">
 <!-- Created with Method Draw - http://github.com/duopixel/Method-Draw/ -->
 <g>
  <title>background</title>
  <rect fill="#fff" id="canvas_background" height="224" width="161" y="-1" x="-1"/>
  <g display="none" overflow="visible" y="0" x="0" height="100%" width="100%" id="canvasGrid">
   <rect fill="url(#gridpattern)" stroke-width="0" y="0" x="0" height="100%" width="100%"/>
  </g>
 </g>
 <g>
  <title>Layer 1</title>
  <path d="m57.75,42.75c-1,0 -1.693436,-1.458801 -3,-2c-1.847763,-0.765366 -2,0 -2,0c-1,0 -0.693436,-0.458801 -2,-1c-1.847763,-0.765366 -5,0 -8,0c-3,0 -5,-1 -7,-1c-1,0 -1,0 -1,0c-1,0 -4.823746,1.486259 -7,2c-1.946503,0.459503 -5.292892,1.292892 -6,2c-0.707108,0.707108 0,1 0,2c0,1 0,1 -1,2c-2,2 -3.346191,2.70546 -5,5c-1.307449,1.813995 -1.692551,3.186005 -3,5c-0.826904,1.14727 -2,3 -3,5c-1,2 -2.486252,4.823746 -3,7c-0.459503,1.946495 -1,3 -1,4c0,1 0,3 0,4c0,3 0,5 0,6c0,3 0.190277,3.881516 2,7c1.122345,1.93399 1.692551,4.186005 3,6c0.826904,1.147263 2.70546,3.346191 5,5c1.813995,1.307449 3.790955,2.356216 7,4c7.604416,3.895233 11.007492,3.877823 12,4c4.092209,0.503769 7,2 10,2c2,0 4,0 6,0c3,0 5,0 8,0c3,0 5.053497,0.459503 7,0c2.176254,-0.513748 5.06601,-1.877655 7,-3c3.118484,-1.809723 4.418854,-2.418854 6,-4c1.581146,-1.581146 7,-28 7,-31c0,-3 0,-5 0,-8c0,-2 -0.493454,-2.878555 -1,-6c-0.320358,-1.974174 -0.540497,-4.053505 -1,-6c-0.513748,-2.176254 -1.458801,-3.693436 -2,-5c-0.38269,-0.923882 0,-2 -1,-3c-1,-1 -2,-1 -3,-2c0,0 -1,-1 -1,-1c0,0 -1.026749,0.229752 -2,0c-2.176254,-0.513741 -4.823746,-1.486259 -7,-2c-0.973251,-0.229752 -2,0 -2,0c0,0 -1,0 -3,0c-2,0 -6,0 -6,0c-1,0 -2,0 -2,0c0,0 -1.823746,0.486259 -4,1c-2.919754,0.689262 -7,0 -10,1l-3,0l-1,0l0,0" id="svg_1" stroke-width="1.5" stroke="#000" fill="none"/>
  <path d="m26.75,67.75c1,0 2,0 5,0c0,0 1,0 2,0c0,0 0,1 0,1c0,1 -1,1 -1,1c0,0 -1,1 -1,1c-1,0 -1,0 -1,0c0,0 0,-1 0,-1c0,0 -0.292892,0.707108 -1,0c-0.707108,-0.707108 0,-1 0,-1c0,0 0,0 0,0c-1,0 -2,-1 -2,-1c0,0 1,0 1,0c0,0 0,0 1,0c0,0 0,1 0,1c0,0 -1,0 -1,0c0,0 0,0 0,0c1,0 1,1 1,1c-1,0 -2,-1 -2,0c0,1 1,0 1,0l0,0" id="svg_2" stroke-width="1.5" stroke="#000" fill="none"/>
  <path d="m62.75,70.75c1,0 2,0 2,0c1,0 1.707108,0.292892 1,1c-0.707108,0.707108 -0.823746,0.486259 -3,1c-1.946503,0.459503 -2.292892,0.707108 -3,0c-0.707108,-0.707108 0,-1 0,-1c0,0 -0.176254,-0.486259 2,-1c0.973251,-0.229752 3,0 4,0c1,0 3,0 3,0c0,0 -1,0 -1,0c-1,0 -2,0 -2,0c0,0 0,0 0,0c0,0 1,0 0,0c-2,0 -2,0 -3,0c0,0 0,0 0,0c1,0 1,1 1,1c-1,0 -0.292892,0.292892 -1,1c-0.707108,0.707108 -1,0 -1,-1c0,0 0,0 1,0c0,0 1,0 1,0c0,0 0,0 -1,0l0,0" id="svg_3" stroke-width="1.5" stroke="#000" fill="none"/>
  <path d="m43.75,82.75c0,1 0,1 0,2c0,0 0,1 0,1c0,0 0,0 0,1c0,1 0,2 0,3c0,0 0,0 0,1l0,0" id="svg_4" stroke-width="1.5" stroke="#000" fill="none"/>
  <path d="m29.75,96.75c1,0 1,0 2,0c2,0 3,0 3,0c2,0 3,0 4,0c1,0 2,0 4,0c1,0 2,0 3,0c0,0 1,0 2,0c1,0 2,0 3,0c0,0 0,0 2,0c3,0 3,0 7,0c2,0 3,0 3,0l1,0l0,0l0,0" id="svg_5" stroke-width="1.5" stroke="#000" fill="none"/>
  <path d="m0.75,133.75c4,0 10,-1 15,-3c5,-2 7,-3 9,-3c1,0 1,0 2,0c0,0 0.934143,-0.144287 3,-1c2.92157,-1.210144 9.878555,-4.493454 13,-5c1.974182,-0.320358 3,0 3,0c1,0 2.009735,-0.802917 4,-1c5.074203,-0.502441 12.963837,-2.11586 16,-3c3.958679,-1.152771 13,-2 17,-2c3,0 4.823746,-0.486252 7,-1c0.973251,-0.229752 3,0 5,0c2,0 4,0 6,0c2,0 4.925781,-0.497559 10,-1c1.990265,-0.197083 5,0 7,0c2,0 2,0 3,0l0,0l-1,0" id="svg_6" stroke-width="1.5" stroke="#000" fill="none"/>
  <path d="m53.75,113.75c0,2 0,2 0,5c0,2 0,4 0,6c0,1 -0.493454,2.878555 -1,6c-0.320358,1.974182 -0.486252,4.823746 -1,7c-0.459503,1.946503 0,3 0,5c0,1 0,3 0,4c0,1 0,1 0,2c0,0 0,1 0,1c0,1 -1,3 -1,4c0,1 0,2 0,3c0,0 0,1 0,1c0,0 0,1 0,2c0,1 -1,4 -1,4c0,0 0,0 0,1c0,0 -1,1 -3,4c-2,3 -3.721695,7.038162 -8,11c-1.640656,1.519302 -3.418854,2.418854 -5,4c-1.581146,1.581146 -2,3 -4,5c-1,1 -3.418854,2.418854 -5,4c-1.581146,1.581146 -1.418854,3.418854 -3,5c-1.581146,1.581146 -3,2 -4,3c-2,2 -3,4 -4,5c-1,1 -2,2 -2,2l0,1" id="svg_7" stroke-width="1.5" stroke="#000" fill="none"/>
  <path d="m48.75,164.75c0,1 0.692551,2.186005 2,4c1.653809,2.29454 3.418854,3.418854 5,5c1.581146,1.581146 2,3 3,4c1,1 2,2 3,3c1,1 2.076126,2.61731 3,3c1.306564,0.541199 1.292892,1.292892 2,2c0.707108,0.707108 0.292892,1.292892 1,2c0.707108,0.707108 1.61731,1.076126 2,2c0.541199,1.306564 2.076126,1.61731 3,2c1.306564,0.541199 2,3 3,4c0,0 1.292892,0.292892 2,1c0.707108,0.707108 0.292892,1.292892 1,2c0.707108,0.707108 1.076126,0.61731 2,1c1.306564,0.541199 1.693436,1.458801 3,2c0.923874,0.38269 2.186005,1.692551 4,3c2.29454,1.653809 2,2 3,3c1,1 0.693436,1.458801 2,2c0.923874,0.38269 2,1 2,1c0,0 -0.306564,0.458801 1,1c0.923874,0.38269 3,2 5,4c2,2 3.61731,3.076111 4,4c0.541199,1.306549 1,1 1,1l0,0" id="svg_8" fill-opacity="null" stroke-opacity="null" stroke-width="1.5" stroke="#000" fill="none"/>
  <path d="m109.75,25.75c0,1 0,2 0,3c0,0 0,1 0,2c0,1 1,3 1,5c0,1 0,2 1,3c0,0 0,0 0,1c0,0 0,0 0,1c0,2 0,2 1,4c0,0 0,1 0,1c0,0 0.498291,0.937965 1,7c0.082489,0.99659 0,2 0,2c0,1 -0.38269,2.076118 0,3c0.541199,1.306564 1,1 1,2c0,1 0,2 0,3c0,1 0.458801,1.693436 1,3c0.38269,0.923882 0,1 0,2c0,1 0,2 0,4c0,1 0,2 0,3c0,1 1,2 1,2c0,1 0,1 0,1c0,1 0,1 0,2c0,1 0.234619,4.152237 1,6c0.541199,1.306564 1,1 1,2c0,0 0,1 0,1c0,0 -0.160187,0.012909 0,1c0.506531,3.121445 1,5 1,6c0,1 0,1 0,2c0,0 0,0 0,3c0,2 0,2 0,4c0,1 0,2 0,2c0,0 0,0 0,1c0,1 1,3 1,6c0,2 0.458801,2.693436 1,4c0.38269,0.923874 0,1 0,3c0,2 1,5 1,7c0,1 1,3 1,3c0,1 0,1 0,2c0,2 0,3 1,4l0,2l0,0l0,1" id="svg_9" fill-opacity="null" stroke-opacity="null" stroke-width="1.5" stroke="#000" fill="none"/>
  <path d="m108.75,31.75c1,0 2.026764,0.229752 3,0c2.176239,-0.513741 2.693451,-1.458801 4,-2c0.923889,-0.382683 2.026764,-0.770248 3,-1c2.176239,-0.513741 4.076111,-1.617317 5,-2c1.306549,-0.541199 1,-2 1,-2c1,0 1,0 1,0c0,-1 0,-1 0,-1c1,0 3.21167,-2.714119 6,-5c1.093658,-0.896595 2,-2 3,-3c0,0 0,0 0,0c0,-1 -0.307465,-1.186008 1,-3c0.826904,-1.14727 1,-2 2,-3c1,-1 1,-2 1,-2c0,0 0,0 0,-1c0,0 0,0 0,-1c0,0 0,0 0,-1c0,0 0,0 0,-2c0,0 0,-1 0,-1c0,0 0,-1 0,-1c0,1 0,1 0,1c1,0 1,1 1,1c0,0 0,1 0,1c1,0 2,1 3,2c0,0 0.292908,1.292892 1,2c0.707092,0.707108 1.292908,0.292892 2,1c0.707092,0.707108 1,1 2,2c1,1 1,1 1,1c1,1 1.458801,0.693436 2,2c0.38269,0.923878 0.458801,0.693436 1,2c0.38269,0.923878 0,1 1,2c0,0 0.458801,0.693436 1,2c0.38269,0.923882 0.458801,0.693436 1,2c0.38269,0.923882 0,2 1,3c0,0 -0.707092,1.292892 0,2c0.707092,0.707108 1,1 1,2c0,1 0,2 0,3c0,0 0,1 0,3c0,0 -0.229767,2.026749 0,3c0.513733,2.176254 1,3 1,3c0,1 0,1 0,1c0,1 0,1 0,1c0,1 0,2 0,3c0,1 0,2 0,3c0,0 0,0 0,1c0,0 -0.458801,0.693436 -1,2c-0.38269,0.923882 0,1 0,2c0,0 0,0 0,0c-1,1 -1,1 -1,1c0,0 0,0 0,1c0,0 -1,0 -1,0c0,0 0,0 0,1c0,0 0,0 0,0c0,0 0,0 0,-1c0,0 0,0 0,0c0,-1 0,-1 0,-1c0,0 0,0 0,-1c0,0 0,0 0,0c0,-1 0,-1 -1,-1c0,0 0,0 0,-1c0,0 -1,0 -1,0c0,0 0,0 0,0c0,0 -1,-1 -1,-1c-1,0 -3,-1 -4,-1c-1,0 -1,-1 -1,-1c0,0 -1,0 -1,0c0,0 -0.076111,0.382683 -1,0c-1.306549,-0.541199 -2.076111,-0.617317 -3,-1c-1.306549,-0.541199 -1,-1 -2,-1c0,0 0,0 -1,0c-1,0 -2,0 -3,0c-1,0 -1,0 -2,0c0,0 0,0 0,0c-1,0 -1,0 -1,0c-1,0 -2.076111,-0.382683 -3,0c-1.306549,0.541199 -0.693451,1.458801 -2,2c-0.923889,0.382683 -2.076111,-0.382683 -3,0c-1.306549,0.541199 -1,1 -3,2c0,0 -1,0 -1,0c0,0 0,1 0,1c0,0 0,0 0,1c0,0 -1,1 -1,1c0,0 -1,1 -1,2c0,0 0,0 0,0c0,0 0,0 -1,1c0,0 0,0 0,0c-1,1 -1,1 -1,1c0,0 0,0 0,0c0,0 -1,0 -1,0c0,0 -0.292908,-0.707108 -1,0c-0.707092,0.707108 0,1 0,1c0,0 0,0 -1,-1l0,-1" id="svg_10" fill-opacity="null" stroke-opacity="null" stroke-width="1.5" stroke="#000" fill="none"/>
  <path d="m23,56.516663c1,1 2,1 3,2c0,0 1,0 1,0c0,0 0,1 0,1c1,0 1,1 2,1c0,0 1,0 1,0c0,0 0,1 0,1c1,1 2,2 3,2c0,0 1,1 1,1c0,0 0,0 1,1c0,0 1,1 2,1c1,0 1,1 1,1c0,0 0.292892,0.292892 1,1c0.707108,0.707108 1.585785,-0.414215 3,1c0.707108,0.707108 1,1 1,1l0,1l1,0" id="svg_11" fill-opacity="null" stroke-opacity="null" stroke-width="1.5" stroke="#000" fill="none"/>
  <path d="m55,70.516663c0,-1 0.152241,-0.234634 2,-1c1.306564,-0.541199 2,-2 2,-2c1,0 1.078438,-0.789848 4,-2c2.065857,-0.855705 2.823746,-2.486256 5,-3c0.973251,-0.229752 1,0 1,0c0,0 0,0 1,0c0,0 0,0 0,-1c0,0 1,0 1,0l0,0" id="svg_12" fill-opacity="null" stroke-opacity="null" stroke-width="1.5" stroke="#000" fill="none"/>
 </g>
</svg>