<svg width="580" height="400" xmlns="http://www.w3.org/2000/svg">
 <!-- Created with Method Draw - http://github.com/duopixel/Method-Draw/ -->
 <g>
  <title>background</title>
  <rect fill="#fff" id="canvas_background" height="402" width="582" y="-1" x="-1"/>
  <g display="none" overflow="visible" y="0" x="0" height="100%" width="100%" id="canvasGrid">
   <rect fill="url(#gridpattern)" stroke-width="0" y="0" x="0" height="100%" width="100%"/>
  </g>
 </g>
 <g>
  <title>Layer 1</title>
  <path d="m261.5,119.516663c-1,0 -2,0 -3,0c-1,0 -3,0 -4,0c-1,0 -2,0 -2,0c0,0 -2.592865,-0.893738 -9,4c-1.123886,0.858421 -1,1 -2,1c0,0 -0.103409,1.906326 -1,3c-4.571762,5.576645 -5.839813,10.012909 -6,11c-0.506546,3.121445 -2.486252,3.823746 -3,6c-0.459503,1.946503 -1,3 -1,5c0,0 0.38269,2.076126 0,3c-0.541199,1.306564 -1,2 -1,2c0,2 0,3 0,4c0,1 0,2 0,3c0,1 0.61731,2.076126 1,3c0.541199,1.306564 1.458801,1.693436 2,3c0.38269,0.923874 0.097885,2.824432 2,4c0.850647,0.525726 1.693436,1.458801 3,2c0.923874,0.38269 2,1 2,1c1,1 2,2 3,2c1,0 2.693436,0.458801 4,1c0.923874,0.38269 2.823746,0.486252 5,1c0.973251,0.229752 3,0 5,0c2,0 3,0 5,0c1,0 3,0 5,0c2,0 4.026764,-0.770248 5,-1c2.176239,-0.513748 3.878571,-1.493454 7,-2c1.974182,-0.320358 3,-1 4,-1c1,0 2.076111,0.38269 3,0c1.306549,-0.541199 2,-1 2,-1c2,0 2.292908,-0.292892 3,-1c0.707092,-0.707108 1,-1 2,-2c1,-1 1.234619,-2.152237 2,-4c0.541199,-1.306564 1.458801,-1.693436 2,-3c0.765381,-1.847763 0.458801,-3.693436 1,-5c0.38269,-0.923874 0,-3 0,-4c0,-1 0,-2 0,-3c0,-1 0,-2 0,-4c0,-1 0,-2 0,-3c0,-1 -1,-2 -1,-3c0,-1 -0.234619,-2.152237 -1,-4c-0.541199,-1.306564 -1,-2 -2,-3c-1,-1 -0.692535,-2.186005 -2,-4c-0.826904,-1.147263 -1.61731,-2.076126 -2,-3c-0.541199,-1.306564 -2,-2 -2,-2c0,0 -1.292908,-0.292892 -2,-1c-0.707092,-0.707108 -0.292908,-1.292892 -1,-2c-0.707092,-0.707108 -1,0 -2,0c0,0 -1,-1 -2,-1c0,0 -1,0 -1,0c-1,0 -2,0 -2,0c-1,0 -1,0 -2,0c-1,0 -1,-1 -2,-1c0,0 -1,0 -2,0c0,0 -1,0 -2,0c-1,0 -2,0 -2,0c-2,-1 -2,-1 -3,-1c0,0 0,0 -1,0c0,0 0,0 -1,0c0,0 0,0 -1,0c0,0 0,0 -1,0l0,0l0,0" id="svg_2" fill-opacity="null" stroke-opacity="null" stroke-width="1.5" stroke="#000" fill="none"/>
  <path d="m204.5,199.516663c0,0 1,0 2,0c1,0 3,0 4,0c1,0 2.693436,-0.458801 4,-1c0.923874,-0.38269 3,0 3,0c1,0 1,0 2,0c1,0 2,0 2,0c0,0 0.292892,-0.292892 1,-1c2.121323,-2.121323 3.076126,0.38269 4,0c1.306564,-0.541199 1,-1 2,-1c1,0 2,0 2,0c1,-1 1,-1 2,-1c1,0 2,0 3,0c0,0 1,0 2,0c1,0 2,0 3,0c1,0 1,-1 2,-1c1,0 2,0 3,0c0,0 1,0 2,0c0,0 1,0 2,0c1,0 1,0 2,0c2,0 2,-1 4,-1c1,0 3.026764,0.229752 4,0c2.176239,-0.513748 3,-1 5,-1c2,0 2.878571,-0.493454 6,-1c0.987091,-0.160187 2,0 3,0c2,0 4.053497,-0.540497 6,-1c2.176239,-0.513748 3,-1 5,-1c2,0 3.962616,-1.499374 14,-2c0.998749,-0.04982 3,0 5,0c1,0 3.076111,0.38269 4,0c1.306549,-0.541199 2,-1 3,-1c2,0 3.076111,0.38269 4,0c1.306549,-0.541199 2,-1 3,-1c2,0 3,0 4,0c2,0 2.823761,-0.486252 5,-1c1.946503,-0.459503 3,0 4,0c1,0 3,-1 4,-1c1,0 2,0 3,0c1,0 1.693451,-0.458801 3,-1c0.923889,-0.38269 2,0 3,0c1,0 1.292908,-0.292892 2,-1c0.707092,-0.707108 1,0 2,0c0,0 1,0 2,0l0,0l1,0l0,0" id="svg_3" fill-opacity="null" stroke-opacity="null" stroke-width="1.5" stroke="#000" fill="none"/>
  <path d="m268.5,175.516663c0,1 0,1 0,1c0,1 1,1 1,1c0,1 0,1 0,1c0,1 -0.707092,1.292892 0,2c0.707092,0.707108 1,1 1,1c0,1 0,1 0,2c0,0 1,1 1,1c0,0 0,1 0,1c0,0 0,0 0,0c0,1 1,2 1,2c0,0 0,1 0,2c0,2 0,5 0,7c0,3 0,5 0,7c0,1 0,8 0,9c0,1 0,2 0,3c0,1 0,1 0,2c0,1 0,2 0,2c0,1 0,1 0,2c0,0 0,1 0,1c0,0 0,1 0,1c0,1 0,1 0,2c0,1 0,1 0,2c0,0 0,0 0,1c0,0 0.292908,0.292892 1,1c0.707092,0.707108 0,1 0,2c0,0 0,1 0,1c0,1 -0.707092,1.292892 0,2c0.707092,0.707108 1,1 1,2c0,0 0,1 0,1c1,1 1,2 1,3c0,0 0,1 0,1c0,0 0,1 0,1c0,0 1,0 1,1c0,1 1,2 1,3c0,0 0,1 0,1c0,0 0.38269,0.076126 0,1c-0.541199,1.306564 -1.173096,1.852737 -2,3c-1.307465,1.813995 -1.292908,2.292892 -2,3c-0.707092,0.707108 -0.173096,1.852722 -1,3c-1.307465,1.813995 -0.0979,3.824432 -2,5c-0.850647,0.525726 -1.61731,1.076111 -2,2c-0.541199,1.306549 -1.458801,0.693451 -2,2c-0.38269,0.923889 -1,2 -1,2c-1,1 -1.458801,0.693451 -2,2c-0.38269,0.923889 -1,2 -2,3c0,0 -0.61731,1.076111 -1,2c-0.541199,1.306549 -0.0979,1.824432 -2,3c-0.850647,0.525726 -1.303223,0.769348 -2,2c-2.031448,3.587921 -2.458801,4.693451 -3,6c-0.38269,0.923889 -1,3 -1,3c-1,1 -1,2 -2,3c0,0 -0.292892,0.292908 -1,1c-0.707108,0.707092 -0.292892,1.292908 -1,2c-0.707108,0.707092 -0.61731,1.076111 -1,2c-0.541199,1.306549 -1,2 -2,3c0,0 -1,1 -1,1l0,1l0,0l0,0" id="svg_4" fill-opacity="null" stroke-opacity="null" stroke-width="1.5" stroke="#000" fill="none"/>
  <path d="m278.5,249.516663c1,0 1.693451,0.458801 3,1c0.923889,0.38269 1,1 2,1c0,0 0,0 1,1c0,0 0.292908,0.292892 1,1c0.707092,0.707108 1,1 2,1c0,0 1,1 1,1c1,0 1,0 2,1c0,0 1,0 1,1c0,0 1,1 2,1c0,0 1,1 1,1c1,0 1.292908,0.292908 2,1c0.707092,0.707092 0.292908,1.292908 1,2c0.707092,0.707092 1,0 2,1c0,0 1.292908,0.292908 2,1c0.707092,0.707092 0.292908,1.292908 1,2c0.707092,0.707092 1,1 2,2c1,1 1.474274,1.149353 2,2c1.175568,1.9021 2.0979,2.824432 4,4c0.850647,0.525726 1.692535,1.186005 3,3c0.826904,1.147278 1,2 2,3c1,1 1.292908,2.292908 2,3c0.707092,0.707092 1,1 2,2c1,1 2,2 2,2c1,1 1,2 2,3c0,0 1,1 1,1c1,1 1,1 1,1l0,0l0,1" id="svg_5" fill-opacity="null" stroke-opacity="null" stroke-width="1.5" stroke="#000" fill="none"/>
  <path d="m338.5,75.516663c0,0 0.459503,1.053505 0,3c-0.513733,2.176254 -2.458801,3.693436 -3,5c-0.765381,1.847755 -0.770233,3.026749 -1,4c-0.513733,2.176254 -1,3 -2,5c-1,2 -1.352875,2.742531 -2,4c-2.783356,5.408592 -1,6 -1,7c0,1 -1,1 -1,2c0,0 0,0 0,1c0,0 0,1 0,1l0,0" id="svg_6" fill-opacity="null" stroke-opacity="null" stroke-width="1.5" stroke="#000" fill="none"/>
  <path d="m339.5,78.516663c0,0 0.292908,0.292892 1,1c0.707092,0.707108 2,1 2,1c1,1 1.474274,1.149345 2,2c1.175568,1.902115 1.693451,1.458801 3,2c0.923889,0.382683 1.292908,0.292892 2,1c0.707092,0.707108 0.292908,1.292892 1,2c0.707092,0.707108 0.292908,0.292892 1,1c0.707092,0.707108 1,1 1,1c1,1 2,1 2,2c0,0 1,1 1,1c1,1 1,1 2,2c0,0 1,1 1,1c1,0 1,1 1,1c1,0 1,0 1,1c0,0 0,1 0,2c0,0 0,1 0,1c0,0 0,1 0,2c0,1 0,2 0,3c0,0 0,1 0,2c0,1 0,2 0,3c0,1 0,1 0,2c0,1 0,1 0,2c0,1 0,1 0,2c0,0 0,1 0,1c0,1 0,2 0,2c0,1 0,1 0,2c0,0 0,1 0,1c0,1 0,1 0,2c0,0 0,1 0,2c0,0 0,1 0,1c0,0 0,1 0,1c0,1 0,1 0,1c0,1 0,1 0,3c0,0 0,1 0,2c0,1 0,2 0,3c0,1 0,1 0,2c0,1 0,2 0,2c0,1 0,2 0,3c0,1 0,2 0,2c0,1 0,1 0,2c0,1 0,1 0,2c0,0 0,1 0,1c0,1 0,1 0,2l0,0" id="svg_7" fill-opacity="null" stroke-opacity="null" stroke-width="1.5" stroke="#000" fill="none"/>
  <path d="m327.5,104.516663c0,0 0.458801,0.693436 1,2c0.38269,0.923882 1,3 1,4c0,1 1,2 1,3c0,1 0,2 1,3c0,0 -0.707092,1.292892 0,2c0.707092,0.707108 1,1 1,2c0,0 0,1 0,1c1,1 1,1 1,2c0,0 1,1 1,1c0,1 0,2 0,2c1,1 1,1 1,2c0,0 1,1 1,1c0,1 -0.38269,1.076126 0,2c0.541199,1.306564 1,1 1,2c0,0 0,1 0,1c1,0 1,1 1,1c0,1 0,1 0,1c1,1 1,1 1,2c0,0 0,0 0,1c0,0 0.292908,0.292892 1,1c0.707092,0.707108 0,1 0,2c0,0 0,1 0,2c0,0 0,1 0,1c1,1 1,1 1,2c0,1 -0.38269,1.076126 0,2c0.541199,1.306564 1,1 1,2c0,0 0,1 0,1c1,1 1,1 1,2c0,0 0,1 0,1c1,1 1,1 1,2c0,0 1,1 1,2c0,0 0,1 0,1c1,1 1,1 1,1c0,1 0,1 0,1c0,0 0,1 0,1c1,1 1,2 1,3l0,1l0,0l0,0" id="svg_8" fill-opacity="null" stroke-opacity="null" stroke-width="1.5" stroke="#000" fill="none"/>
  <path d="m361.5,147.516663c0,1 0,1 0,1c0,1 0,1 0,1c0,1 0,1 0,1c0,1 0,1 0,2c0,0 0,0 0,1c0,0 0,1 0,1c0,1 0,1 0,1c1,0 1,1 1,1c0,1 0,1 0,2c0,0 0,1 0,1c0,1 0,1 0,2c0,0 0,1 0,2c0,0 0,1 0,1c0,0 0,1 0,1c0,1 0,1 0,2c0,0 0,1 0,1c0,0 0,1 0,1c0,1 0,1 0,1l0,1" id="svg_9" fill-opacity="null" stroke-opacity="null" stroke-width="1.5" stroke="#000" fill="none"/>
  <path d="m333.5,170.516663c1,0 2,0 3,0c1,0 1,0 2,0c1,0 2,0 2,0c1,-1 2,-1 3,-1c0,0 1,0 1,0c0,0 1,0 1,0c0,0 1,-1 1,-1c0,0 0,0 1,0c0,0 0.186005,0.307449 2,-1c1.147278,-0.826904 3,-1 4,-1c0,0 1,0 1,-1c0,0 1,0 3,0c1,0 2,-1 3,-1c1,0 1,0 1,0c0,0 1.152252,0.765366 3,0c1.306549,-0.541199 2,-1 3,-1c0,0 1,-1 1,-1c0,0 0,0 4,0c1,0 1,-1 2,-1c0,0 0,0 1,0c1,0 2,-1 3,-1l1,0l0,0" id="svg_10" fill-opacity="null" stroke-opacity="null" stroke-width="1.5" stroke="#000" fill="none"/>
  <path d="m352.5,167.516663c0,1 0,2 0,2c0,1 0,2 0,2c0,1 0,2 0,3c0,1 0,1 0,2c0,0 0,1 0,2c0,0 1,1 1,1c0,1 0,1 0,2c0,0 0.292908,0.292892 1,1c0.707092,0.707108 0,1 0,2c0,0 1,1 1,1c0,1 0,1 0,1c0,0 1,1 1,1c0,1 0,1 0,2c0,0 1,0 1,0c0,1 0,1 0,1c0,1 0,2 1,2c0,0 0,1 0,1c0,0 0,0 0,1c0,1 0,1 0,2c0,1 0,1 0,2c0,0 0,1 0,1c0,1 0,2 0,2c0,1 0,1 0,2c0,0 0,1 0,1c0,1 0,1 0,2l0,0l0,0" id="svg_11" fill-opacity="null" stroke-opacity="null" stroke-width="1.5" stroke="#000" fill="none"/>
  <path d="m347.5,181.516663c0,0 0,0 1,0c0,0 0,0 1,0c0,0 2,0 2,0l1,0l0,0l1,0" id="svg_12" fill-opacity="null" stroke-opacity="null" stroke-width="1.5" stroke="#000" fill="none"/>
 </g>
</svg>