<svg width="145" height="218" xmlns="http://www.w3.org/2000/svg">
 <!-- Created with Method Draw - http://github.com/duopixel/Method-Draw/ -->
 <g>
  <title>background</title>
  <rect fill="#fff" id="canvas_background" height="220" width="147" y="-1" x="-1"/>
  <g display="none" overflow="visible" y="0" x="0" height="100%" width="100%" id="canvasGrid">
   <rect fill="url(#gridpattern)" stroke-width="0" y="0" x="0" height="100%" width="100%"/>
  </g>
 </g>
 <g>
  <title>Layer 1</title>
  <path d="m60.75,11.75c-9,0 -11,0 -11,0c-1,0 -2,0 -2,0c-3,0 -6,2 -8,3c-2,1 -3,1 -3,2c0,0 0.238922,0.415894 -3,2c-2.840729,1.389351 -5,3 -6,4c-1,1 -1,2 -1,2c-1,1 -3,3 -6,6c-3,3 -4.692551,5.186005 -6,7c-0.826904,1.14727 -1,2 -2,4c-1,2 -1.486252,2.823746 -2,5c-0.459503,1.946495 -1,4 -1,5c0,2 0,5 0,6c0,3 0,5 0,7c0,2 0.234634,4.152237 1,6c0.541199,1.306564 1.692551,3.186005 3,5c1.653809,2.29454 4.076126,4.61731 5,5c2.613129,1.082397 3.07843,2.789856 6,4c2.065857,0.855713 4,2 6,3c2,1 8,1 10,1c3,0 5,0 9,0c3,0 4,0 5,0c2,0 3,-1 4,-1c1,0 2,-1 2,-1c1,0 1,0 1,-1c0,0 2.346191,-0.70546 4,-3c1.307434,-1.813995 5.186005,-4.692551 7,-6c2.294556,-1.653809 2,-2 3,-3c1,-1 1.877655,-3.06601 3,-5c1.809723,-3.118484 3,-5 4,-7c1,-2 2,-5 2,-7c0,-2 0,-5 0,-8c0,-3 0,-5 0,-6c0,-1 0.38269,-3.076118 0,-4c-0.541199,-1.306564 -1.770264,-2.026749 -2,-3c-0.513733,-2.176254 -2,-3 -3,-4c-1,-1 -1.173096,-0.85273 -2,-2c-1.307434,-1.813995 -1.659576,-2.059731 -2,-3c-2.658813,-7.343758 -6,-8 -7,-9c0,0 -1,-1 -1,-1c-1,0 -1,0 -2,0c-2,0 -2,0 -2,0c-1,0 -1,0 -1,0c-2,-1 -3,-1 -5,-1c-1,0 -3,-1 -4,-1c0,0 0,0 0,0l0,0l-1,-1l0,0" id="svg_1" stroke-width="1.5" stroke="#000" fill="none"/>
  <path d="m0.75,120.75c2,0 3,0 8,0c1,0 5,0 7,0c4,0 6.026749,0.229752 7,0c2.176254,-0.513748 3.823746,-1.486252 6,-2c1.946503,-0.459503 3.823746,-0.486252 6,-1c1.946503,-0.459503 5.292892,-0.292892 6,-1c2.121323,-2.121323 3.693436,-0.458801 5,-1c0.923874,-0.38269 2,0 3,0c1,0 4,-1 6,-1c1,0 2.82373,-0.486252 5,-1c1.946503,-0.459503 4,0 5,0c3,0 7.053497,-0.540497 9,-1c2.17627,-0.513748 4,-1 7,-1c2,0 2,-1 4,-1c1,0 4.82373,-0.486252 7,-1c0.973267,-0.229752 2.82373,-0.486252 5,-1c0.973267,-0.229752 3,0 4,0c1,0 3,-1 5,-1c1,0 3.152222,0.765366 5,0c1.30658,-0.541199 3,-1 4,-1c2,0 4,0 4,0c2,0 4,-1 5,-1l0,0l1,0" id="svg_2" stroke-width="1.5" stroke="#000" fill="none"/>
  <path d="m51.75,87.75c0,3 0,5 0,7c0,2 0.458801,4.693436 1,6c0.765366,1.847763 0.493454,2.878555 1,6c0.160187,0.987091 0,2 0,2c0,1 -0.160187,1.012909 0,2c0.506546,3.121445 1,4 1,6c0,3 0.458801,4.693436 1,6c0.765381,1.847763 0,2 0,4c0,1 0,1 0,1c0,1 0,1 0,1c0,1 0,1 0,1c1,3 1,3 1,4c0,0 0,0 0,1c0,0 0,0 0,1c0,2 1,5 1,7c0,1 0,2 0,2c0,0 0,0 0,1c0,2 0.498718,2.946716 1,10c0.070892,0.997482 0,1 0,2c0,0 0,0 0,0c0,0 0,-1 0,-1c0,1 0.707092,1.292892 0,2c-0.707092,0.707108 -1,1 -1,1c-1,1 -2.789856,5.07843 -4,8c-0.855713,2.065857 -1.458801,2.693436 -2,4c-0.38269,0.923874 0,1 0,1c0,0 0.210144,1.07843 -1,4c-0.855713,2.065857 -3.288589,6.868286 -5,11c-1.210144,2.92157 -1.61731,5.076111 -2,6c-0.541199,1.306549 -1,1 -1,2c0,0 -1.194092,0.88855 -4,6c-1.076019,1.960144 -4.443527,5.380615 -6,11c-0.533875,1.927429 -1,3 -1,3l0,1" id="svg_3" stroke-width="1.5" stroke="#000" fill="none"/>
  <path d="m58.75,157.75c0,0 0.103394,0.906326 1,2c2.285889,2.78833 2.824432,3.097885 4,5c1.051453,1.701309 1,3 2,4c0,0 1,1 1,1c1,1 1.458801,0.693436 2,2c0.38269,0.923874 0.292908,1.292892 1,2c0.707092,0.707108 0.292908,1.292892 1,2c0.707092,0.707108 2,1 2,1c1,1 1,1 2,2c0,0 1,1 1,1c0,1 1,1 1,1c0,1 0.292908,1.292908 1,2c0.707092,0.707092 1.292908,0.292908 2,1c0.707092,0.707092 0,1 1,2c0,0 1,1 1,1c1,0 1,1 1,1c1,1 1.458801,0.693451 2,2c0.38269,0.923889 1,2 2,3c1,1 1,2 2,3c1,1 2,2 3,3c1,1 2,3 4,5c1,1 1,1 2,2c1,1 1,1 2,2c0,0 1,1 1,1l0,0" id="svg_4" stroke-width="1.5" stroke="#000" fill="none"/>
  <path d="m113.75,0.75c0,1 0.307434,2.186005 -1,4c-0.826904,1.14727 -1.337494,3.310005 -3,6c-1.487,2.406006 -2.190277,3.881523 -4,7c-1.122345,1.933998 -1.173096,3.85273 -2,5c-1.307434,1.813995 -0.61731,2.076118 -1,3c-0.541199,1.306564 -1,1 -1,1c0,1 0,0 1,0c0,0 0,0 0,0c1,0 1,0 1,0c0,0 1,0 1,0c0,1 0.458801,0.693436 1,2c0.38269,0.923882 0,1 0,2c0,0 0,0 1,1c0,0 0.458801,0.693436 1,2c0.38269,0.923882 0.458801,1.693436 1,3c0.38269,0.923882 0.458801,2.693436 1,4c0.38269,0.923882 0.458801,1.693436 1,3c0.38269,0.923882 0,2 0,3c0,2 1.493469,2.878555 2,6c0.320374,1.974182 0.458801,2.693436 1,4c0.38269,0.923874 0,2 0,3c0,1 1,2 1,3c0,0 0,1 0,1c1,1 1,1 1,2l0,0l0,0l0,-1" id="svg_5" stroke-width="1.5" stroke="#000" fill="none"/>
  <path d="m114.75,5.75c1,1 1.292908,1.292892 2,2c0.707092,0.707108 1,1 1,1c1,0 0.292908,0.292892 1,1c0.707092,0.707108 1,0 2,1c0,0 1,1 1,1c0,0 0,0 0,0c1,1 2,2 2,2c1,1 1.076111,1.617317 2,2c1.30658,0.541199 1.292908,1.292892 2,2c0.707092,0.707108 1,2 1,2c1,1 0.61731,1.076118 1,2c0.541199,1.306564 2,2 2,2c1,1 1,1 1,1c0,1 0,1 1,1c0,0 0,1 1,1c0,0 0,1 0,1c0,0 0,1 0,1c0,0 0,0 0,1c0,0 0,0 -1,1c0,0 0,1 0,2c0,2 -1,3 -1,4c0,1 -1,2 -1,3c0,0 0,1 0,2c0,1 0,2 0,2c-1,1 -1,2 -1,3c0,0 0,1 0,2c0,0 0,1 0,2c0,0 0,1 0,1c0,1 0,2 0,2c0,1 0,2 0,3c0,0 0,1 0,1c-1,1 -1,2 -1,3c0,1 0,1 0,2c0,1 0,1 0,2c0,1 0,1 0,2c0,0 0,1 0,2c0,1 0,1 0,2c0,0 0,1 0,1c0,0 0,2 0,3c0,0 0,0 0,0c0,1 0,1 0,1c0,1 0,1 0,1c0,0 0,0 0,0c0,1 0,2 0,2c0,2 0,2 0,3c0,0 0,0 0,1c0,0 0,1 0,1l0,0" id="svg_6" stroke-width="1.5" stroke="#000" fill="none"/>
  <path d="m114.75,60.75c0,1 0,1 1,2c0,0 0,1 0,1c0,0 0,0 1,1c0,0 0,1 0,1c0,0 0,0 1,1c0,0 0,0 0,1c0,0 0,1 0,1c1,1 1,1 1,1c0,0 0,1 0,1c0,1 -0.707092,1.292892 0,2c0.707092,0.707108 1,1 1,1c0,0 0,1 0,1c0,1 -0.38269,1.076126 0,2c0.541199,1.306564 1,2 1,2c0,1 0,1 0,2c0,0 0,1 0,1c0,1 0,1 0,2c0,0 0,0 0,1c0,0 0,1 0,1l0,1l0,0l0,0" id="svg_7" stroke-width="1.5" stroke="#000" fill="none"/>
  <path d="m111.75,88.75c1,0 4.080261,0.689255 7,0c2.17627,-0.513748 5.076111,-0.61731 6,-1c1.30658,-0.541199 2,-1 2,-1c0,0 1.026733,0.229752 2,0c2.176239,-0.513748 4.132996,-1.569504 8,-3c2.097168,-0.775803 4,-2 6,-2c0,0 1,0 1,0l0,0l-1,0" id="svg_8" stroke-width="1.5" stroke="#000" fill="none"/>
  <path d="m125.75,86.75c0,1 0,1 0,1c0,0 0,1 0,1c0,0 0,0 0,1c0,0 0,0 0,1c0,0 0,0 0,0c0,1 0,1 0,1c0,1 0,1 0,1c0,0 0,1 0,1c0,0 0,0 0,1c0,1 0,1 0,1c0,0 0,1 0,1c0,0 0,1 0,1c0,0 0,0 0,0c0,1 0.292908,0.292892 1,1c0.707092,0.707108 0,1 0,1c0,1 0,1 0,1c0,0 0,1 0,1c0,0 0,0 0,1c0,0 0,0 0,1c0,0 0,0 0,1c0,0 0,0 0,1c0,0 0,0 0,1c0,0 0,0 0,1c0,0 0,0 0,1c0,0 0,0 0,1c0,0 1,1 1,1c0,1 0,1 0,1c0,1 0,4 0,4c0,0 0,1 0,1c0,1 0,1 0,1c0,1 0,1 0,1c0,1 0,1 0,1c0,1 0,1 0,1c0,0 0,1 0,1c0,0 0,0 0,1c0,0 0,0 0,1c0,1 0,2 0,3c0,0 0,1 0,1l0,-1l0,-1" id="svg_9" stroke-width="1.5" stroke="#000" fill="none"/>
  <path d="m112.75,3.75c0,0 0,0 0,1c0,0 1,3 1,3c0,0 -0.707092,0.292892 0,1c0.707092,0.707108 1,1 1,2c0,0 0.292908,0.292892 1,1c0.707092,0.707108 0,2 0,2c0,1 0,2 0,2c0,1 -0.707092,1.292892 0,2c0.707092,0.707108 1,2 1,3c0,1 0,2 0,3c0,1 0,2 0,2c0,1 1,2 1,2c0,1 0,1 0,2c0,0 0,1 0,1c0,1 -0.38269,1.076118 0,2c0.541199,1.306564 1,1 1,2c0,0 0,1 0,1c0,1 0,2 0,2c0,1 0,1 0,2c0,1 0,1 0,2c0,0 0.292908,0.292892 1,1c0.707092,0.707108 0,1 0,2c0,0 0,1 0,1c0,1 0,1 0,1c0,1 0,2 0,2c0,1 0,1 0,2c0,0 0,1 0,1c0,1 0,1 0,2c0,0 1,0 1,1c0,0 0,0 0,1c0,0 0,1 0,1c0,0 0,1 0,1c1,1 1,1 1,2c0,0 0,1 0,2c0,0 -0.765381,1.152237 0,3c0.541199,1.306564 1,1 1,2c0,0 0,1 0,1c0,0 0,1 0,2c0,1 -0.38269,3.076126 0,4c0.541199,1.306564 1,1 1,2c0,1 -0.707092,2.292892 0,3c0.707092,0.707108 1,1 1,2c0,1 0,1 0,1c0,0 0,1 0,1c0,0 0,0 0,1c0,0 0,0 0,0c0,1 0,1 0,1c0,0 0,1 0,1c0,0 0,1 0,1c0,0 0,1 0,1c0,1 0,1 0,1l0,0" id="svg_10" stroke-width="1.5" stroke="#000" fill="none"/>
  <path d="m32.75,43.75c0,0 1,0 1,0c0,0 0,0 0,0c0,1 0,1 0,1c0,1 0,1 0,1c0,0 -1,0 -1,0c0,0 0,-1 0,-1c0,0 0,0 0,-1c0,0 0,0 1,0c0,0 0,0 0,0c1,0 1,0 2,0c0,0 0,0 0,0c0,0 0,0 0,1c0,0 -0.292892,-0.707108 -1,0c-0.707108,0.707108 0,1 0,1c0,0 -0.292892,0.707108 -1,0c-0.707108,-0.707108 0,-1 0,-1c1,0 1,0 1,0c0,0 1,0 1,0c0,0 0,0 0,0c-1,0 -1,0 -1,0c-1,0 -1,0 -1,0c-1,0 -1,0 -1,0c1,0 1,0 1,0c0,0 0,0 0,0c0,0 0,0 0,0c0,0 0,0 0,0c0,0 0,0 0,0c0,1 0,1 0,1c-1,-1 -1,-1 -1,-2c0,0 0,0 0,0c0,-1 1,-1 1,-1c0,0 0,0 0,1c0,0 0,0 0,1c0,0 0,0 0,0c0,1 0,1 0,1c0,-1 0,-1 0,-1l0,0" id="svg_11" stroke-width="1.5" stroke="#000" fill="none"/>
  <path d="m60.75,46.75c0,0 0,0 1,0c0,0 0,1 1,1c0,0 0,1 0,1c0,0 0,1 0,1c0,0 -1,0 -1,0c0,0 -1,0 -1,0c0,-1 0,-1 0,-2c0,0 0,0 0,0c0,0 1,0 1,0c0,0 0,1 0,1c0,0 0,0 0,1c0,0 0,0 -1,0c0,0 0,0 0,-1c0,0 1,0 1,0c0,0 0,0 0,1c0,0 0,0 0,0c0,0 -1,0 -1,-1c0,0 0,-1 0,-1l1,0l0,0" id="svg_12" stroke-width="1.5" stroke="#000" fill="none"/>
  <path d="m29.75,31.75c0,0 0,0 0,0c0,0 1,0 1,0c0,1 1,1 1,1c0,1 0,1 1,1c0,0 0,1 0,1c0,0 0,0 0,0c0,0 0.292892,-0.707108 1,0c0.707108,0.707108 0,1 0,1c1,0 1,1 1,1c1,0 1.292892,0.292892 2,1c0.707108,0.707108 1,1 1,1c0,1 1,1 1,1c0,0 1,1 1,1c0,0 0,0 0,0c0,0 0,1 1,1c0,0 0,0 0,0c0,1 1,1 1,1l0,0l0,0l0,1" id="svg_13" stroke-width="1.5" stroke="#000" fill="none"/>
  <path d="m53.75,42.75c1,-1 1,-1 1,-1c1,-1 1.61731,-1.076118 2,-2c0.541199,-1.306564 1,-1 1,-1c0,0 1,0 1,0c0,0 0.076111,-0.617317 1,-1c1.30658,-0.541199 6.0979,-6.175568 8,-5c0.850647,0.525734 0,1 0,1l0,0l0,0l0,-1" id="svg_14" stroke-width="1.5" stroke="#000" fill="none"/>
  <path d="m37.75,69.75c0,0 0,0 0,0c1,0 1,0 1,0c0,0 1,0 1,0c0,0 0,0 1,0c0,0 0,0 1,0c0,0 1,0 1,0c1,0 1,0 2,0c0,0 1,0 1,0c2,1 2,1 3,1c0,0 1,0 1,0c1,0 1,0 2,0c0,0 1,0 1,0c0,0 1,0 1,0c0,0 1,0 1,0c0,0 0,0 1,0c0,0 1,0 1,0c1,0 0.292908,0.292892 1,1c0.707092,0.707108 2,0 3,0c0,0 0,0 0,0l0,0" id="svg_15" stroke-width="1.5" stroke="#000" fill="none"/>
  <path d="m47.75,54.75c0,0 0,0 0,1c0,0 0,0 0,0c0,0 0,1 0,1c0,0 0.707108,0.292892 0,1c-0.707108,0.707108 -1,0 -1,0c0,0 0,1 0,1c0,0 0,1 0,1c0,0 0,0 0,0c0,1 0,1 0,1c1,0 1,0 1,0c1,0 1,0 1,0l1,0l0,0l1,0" id="svg_16" stroke-width="1.5" stroke="#000" fill="none"/>
 </g>
</svg>